Coordinates
version=1
nRows=6
nColumns=34
inDegrees=yes

Units are S.I. units (second, meters, Newtons, ...)
If the header above contains a line with 'inDegrees', this indicates whether rotational values are in degrees (yes) or radians (no).

endheader
time	pelvis_tilt	pelvis_list	pelvis_rotation	pelvis_tx	pelvis_ty	pelvis_tz	hip_flexion_r	hip_adduction_r	hip_rotation_r	knee_angle_r	ankle_angle_r	subtalar_angle_r	mtp_angle_r	hip_flexion_l	hip_adduction_l	hip_rotation_l	knee_angle_l	ankle_angle_l	subtalar_angle_l	mtp_angle_l	lumbar_extension	lumbar_bending	lumbar_rotation	arm_flex_r	arm_add_r	arm_rot_r	elbow_flex_r	pro_sup_r	arm_flex_l	arm_add_l	arm_rot_l	elbow_flex_l	pro_sup_l
      2.68333330	    -54.62914880	     21.34850391	     30.20584480	      0.06116670	      1.14979557	     -0.11760871	     20.35179966	    -18.08811533	     29.71476395	     29.55972307	     50.00000000	    -35.00000000	      0.00000000	     58.27855988	     30.00000025	    -12.37212720	     47.98626430	     50.00000000	     -8.21770785	      0.00000000	     37.30959219	    -57.21234057	    -22.18952799	    -11.91774366	      9.98649279	     16.16791360	     28.66797186	     89.57231201	    -45.34629018	    -12.02781693	    -32.34585581	     82.65386208	    108.76620026
      2.70000000	    -53.87535457	     21.26255717	     30.37524168	      0.06372594	      1.15060352	     -0.11784117	     19.43494465	    -17.83678050	     29.13097838	     29.16244948	     50.00000000	    -35.00000000	      0.00000000	     56.67342506	     30.00000025	    -11.14086187	     47.73841931	     50.00000000	     -8.94754560	      0.00000000	     36.05127686	    -57.07521757	    -22.79797130	    -12.00065326	     10.04568306	     16.26482222	     28.53994472	     89.65896676	    -44.93989942	    -12.35628728	    -32.03056975	     82.08136676	    108.88146918
      2.71666670	    -53.91202837	     21.15074294	     30.42815914	      0.06015575	      1.14788630	     -0.12012407	     19.54221018	    -17.71415198	     28.97703261	     29.39515967	     50.00000000	    -35.00000000	      0.00000000	     56.30963983	     30.00000025	    -11.04839120	     47.28319551	     50.00000000	     -8.84623360	      0.00000000	     36.02089495	    -57.00776409	    -22.79402623	    -12.17063429	      9.97448403	     16.25618166	     28.49358255	     89.65922924	    -44.96711473	    -12.26882612	    -31.97412948	     82.06362907	    108.88761502
      2.73333330	    -53.75969907	     20.93372033	     30.29950295	      0.05787155	      1.15300130	     -0.12030069	     19.50026660	    -17.44512085	     28.85486270	     29.59831397	     50.00000000	    -35.00000000	      0.00000000	     56.40615780	     30.00000025	    -11.22063879	     47.09574660	     50.00000000	     -8.32030652	      0.00000000	     35.85624622	    -56.71303082	    -22.86995016	    -12.16591649	      9.87577676	     16.21680833	     28.51734556	     89.65718688	    -44.80735894	    -12.09762467	    -31.84020417	     81.93559535	    108.90948889
      2.75000000	    -53.51390049	     20.98594472	     29.89455380	      0.05710230	      1.15177762	     -0.11962495	     19.84034533	    -17.21300081	     29.07374329	     30.10978282	     50.00000000	    -35.00000000	      0.00000000	     57.02355946	     30.00000025	    -11.76745221	     47.03219719	     50.00000000	     -8.29140415	      0.00000000	     35.33610536	    -56.47171585	    -22.92267866	    -12.01443296	      9.88015067	     16.21265771	     28.54688376	     89.65701145	    -44.66767919	    -12.10909890	    -31.83886446	     81.86612839	    108.92061804
      2.76666670	    -53.40522302	     20.59831795	     29.89672901	      0.05690992	      1.15356319	     -0.11990273	     19.73068747	    -17.06277649	     28.63228143	     29.83015327	     50.00000000	    -35.00000000	      0.00000000	     56.71560302	     30.00000025	    -10.62121915	     47.74575601	     50.00000000	     -9.88693264	      0.00000000	     35.03130570	    -56.27282523	    -23.03959412	    -11.93704745	      9.89505386	     16.22655810	     28.49053201	     89.65379173	    -44.21274628	    -12.16310210	    -31.78571796	     81.83120963	    108.96578829
